<?xml version="1.0" standalone="no"?>
<!DOCTYPE svg PUBLIC "-//W3C//DTD SVG 20010904//EN"
 "http://www.w3.org/TR/2001/REC-SVG-20010904/DTD/svg10.dtd">
<svg version="1.0" xmlns="http://www.w3.org/2000/svg"
 width="682.000000pt" height="682.000000pt" viewBox="0 0 682.000000 682.000000"
 preserveAspectRatio="xMidYMid meet">
<metadata>
Created by potrace 1.14, written by Peter Selinger 2001-2017
</metadata>
<g transform="translate(0.000000,682.000000) scale(0.100000,-0.100000)"
fill="#000000" stroke="none">
<path d="M2595 5407 c-37 -23 -53 -52 -136 -244 -59 -136 -87 -189 -95 -182
-6 5 -16 33 -22 63 -15 73 -46 136 -90 183 -48 50 -94 77 -184 104 -67 21 -94
23 -333 23 -287 1 -306 -3 -344 -64 -10 -17 -21 -26 -27 -21 -22 21 -126 45
-204 47 -239 7 -446 -89 -586 -271 -114 -148 -151 -351 -100 -550 1 -5 10 -27
19 -49 9 -21 17 -40 17 -42 0 -1 5 -15 12 -31 6 -15 12 -30 13 -33 7 -29 18
-50 25 -50 4 0 10 -10 14 -22 4 -20 89 -162 113 -193 5 -5 16 -22 26 -37 l17
-28 -232 -1 c-225 -1 -248 -2 -292 -13 -60 -16 -120 -113 -131 -211 -5 -48 -1
-74 17 -130 22 -65 23 -85 22 -305 -1 -214 -14 -919 -18 -981 -1 -14 -11 -38
-23 -53 -12 -15 -28 -44 -35 -64 -12 -38 -17 -171 -7 -207 17 -60 54 -120 108
-177 34 -36 111 -130 173 -209 62 -79 117 -150 123 -157 31 -39 71 -72 99 -81
144 -48 471 -59 716 -26 104 14 274 67 385 120 143 69 239 137 393 282 18 17
39 30 47 27 7 -3 30 -26 51 -52 140 -169 284 -268 461 -316 91 -25 115 -28
253 -31 106 -3 186 3 260 18 62 13 91 21 130 34 25 8 50 16 55 17 84 21 239
112 313 183 74 72 77 72 181 -2 118 -85 319 -174 471 -209 142 -32 300 -41
387 -21 89 21 176 86 253 190 44 58 59 75 71 75 3 0 44 -23 90 -51 46 -29 102
-61 124 -73 22 -12 42 -23 45 -26 26 -28 355 -145 460 -164 14 -2 25 -5 25 -6
0 -8 100 -15 230 -15 152 0 163 1 216 26 50 24 139 101 139 121 0 12 85 142
103 157 9 7 14 17 11 22 -3 5 0 9 5 9 6 0 17 16 25 35 9 20 41 67 73 106 32
39 57 75 56 80 -2 5 1 9 6 9 12 0 122 135 161 198 30 49 65 129 77 177 3 11 7
81 9 155 2 106 -1 149 -15 200 -31 114 -84 212 -178 328 l-42 53 16 42 c9 23
20 46 25 51 4 6 8 16 8 23 0 7 37 86 81 176 79 157 82 164 82 232 0 124 -57
199 -210 278 -125 64 -222 97 -363 122 -8 2 -43 6 -77 10 -35 4 -63 10 -63 12
0 13 202 322 230 352 78 84 104 160 104 296 -1 174 -41 203 -280 209 -157 5
-192 -5 -230 -61 -27 -41 -29 -39 -87 107 -136 342 -153 375 -196 392 -27 10
-181 22 -287 21 -106 -1 -120 -18 -199 -243 -44 -127 -90 -205 -105 -181 -12
21 -63 30 -178 32 l-120 3 1 165 c2 160 1 167 -22 199 -38 53 -43 54 -341 66
-69 3 -174 8 -235 11 -60 2 -202 7 -315 11 -113 3 -248 8 -300 9 -251 8 -279
8 -305 -9 -38 -25 -51 -64 -54 -156 -5 -173 -8 -183 -39 -164 -9 6 -22 31 -28
55 -5 24 -16 57 -22 72 -7 16 -12 37 -12 49 0 11 -9 31 -20 45 -11 14 -20 31
-20 38 0 19 -39 64 -69 80 -38 19 -328 30 -356 12z m387 -2606 c49 -22 62 -35
71 -68 14 -61 -84 -106 -238 -107 -165 -2 -199 36 -111 126 69 71 185 92 278
49z"/>
</g>
</svg>
